<mxfile host="app.diagrams.net" modified="2023-05-15T12:42:56.658Z" agent="Mozilla/5.0 (Windows NT 10.0; Win64; x64) AppleWebKit/537.36 (KHTML, like Gecko) Chrome/113.0.0.0 Safari/537.36" etag="r5Cn5OroLPgL86crePYr" version="21.3.0" type="device">
  <diagram name="第 1 页" id="CuJCkMHVcypl9i5bxJtM">
    <mxGraphModel dx="1593" dy="787" grid="1" gridSize="10" guides="1" tooltips="1" connect="1" arrows="1" fold="1" page="1" pageScale="1" pageWidth="827" pageHeight="1169" math="0" shadow="0">
      <root>
        <mxCell id="0" />
        <mxCell id="1" parent="0" />
        <mxCell id="KW4fXr90oI_FPSO1z6JW-1" value="Start" style="strokeWidth=2;html=1;shape=mxgraph.flowchart.start_1;whiteSpace=wrap;" parent="1" vertex="1">
          <mxGeometry x="49" y="20" width="100" height="60" as="geometry" />
        </mxCell>
        <mxCell id="KW4fXr90oI_FPSO1z6JW-3" value="" style="endArrow=classic;html=1;rounded=0;exitX=0.5;exitY=1;exitDx=0;exitDy=0;exitPerimeter=0;" parent="1" source="KW4fXr90oI_FPSO1z6JW-1" edge="1">
          <mxGeometry width="50" height="50" relative="1" as="geometry">
            <mxPoint x="119" y="340" as="sourcePoint" />
            <mxPoint x="99" y="130" as="targetPoint" />
          </mxGeometry>
        </mxCell>
        <mxCell id="KW4fXr90oI_FPSO1z6JW-4" value="add player" style="rounded=1;whiteSpace=wrap;html=1;absoluteArcSize=1;arcSize=14;strokeWidth=2;" parent="1" vertex="1">
          <mxGeometry x="40" y="130" width="116" height="60" as="geometry" />
        </mxCell>
        <mxCell id="KW4fXr90oI_FPSO1z6JW-5" value="" style="endArrow=classic;html=1;rounded=0;exitX=0.5;exitY=1;exitDx=0;exitDy=0;entryX=0.5;entryY=0;entryDx=0;entryDy=0;" parent="1" source="KW4fXr90oI_FPSO1z6JW-4" target="KW4fXr90oI_FPSO1z6JW-6" edge="1">
          <mxGeometry width="50" height="50" relative="1" as="geometry">
            <mxPoint x="119" y="340" as="sourcePoint" />
            <mxPoint x="101" y="240" as="targetPoint" />
          </mxGeometry>
        </mxCell>
        <mxCell id="KW4fXr90oI_FPSO1z6JW-6" value="Name Input" style="rounded=1;whiteSpace=wrap;html=1;absoluteArcSize=1;arcSize=14;strokeWidth=2;" parent="1" vertex="1">
          <mxGeometry x="41" y="240" width="116" height="60" as="geometry" />
        </mxCell>
        <mxCell id="KW4fXr90oI_FPSO1z6JW-7" value="" style="endArrow=classic;html=1;rounded=0;exitX=0.5;exitY=1;exitDx=0;exitDy=0;" parent="1" source="KW4fXr90oI_FPSO1z6JW-8" edge="1">
          <mxGeometry width="50" height="50" relative="1" as="geometry">
            <mxPoint x="109" y="350" as="sourcePoint" />
            <mxPoint x="101" y="350" as="targetPoint" />
          </mxGeometry>
        </mxCell>
        <mxCell id="KW4fXr90oI_FPSO1z6JW-9" value="" style="endArrow=classic;html=1;rounded=0;exitX=0.5;exitY=1;exitDx=0;exitDy=0;" parent="1" source="KW4fXr90oI_FPSO1z6JW-6" target="KW4fXr90oI_FPSO1z6JW-8" edge="1">
          <mxGeometry width="50" height="50" relative="1" as="geometry">
            <mxPoint x="101" y="300" as="sourcePoint" />
            <mxPoint x="101" y="350" as="targetPoint" />
          </mxGeometry>
        </mxCell>
        <mxCell id="KW4fXr90oI_FPSO1z6JW-8" value="Color choose" style="rounded=1;whiteSpace=wrap;html=1;absoluteArcSize=1;arcSize=14;strokeWidth=2;" parent="1" vertex="1">
          <mxGeometry x="46" y="350" width="110" height="60" as="geometry" />
        </mxCell>
        <mxCell id="KW4fXr90oI_FPSO1z6JW-10" value="more player?" style="strokeWidth=2;html=1;shape=mxgraph.flowchart.decision;whiteSpace=wrap;" parent="1" vertex="1">
          <mxGeometry x="51" y="585" width="100" height="90" as="geometry" />
        </mxCell>
        <mxCell id="KW4fXr90oI_FPSO1z6JW-12" value="" style="endArrow=classic;html=1;rounded=0;exitX=0.5;exitY=1;exitDx=0;exitDy=0;entryX=0.5;entryY=0;entryDx=0;entryDy=0;" parent="1" source="KW4fXr90oI_FPSO1z6JW-8" target="KW4fXr90oI_FPSO1z6JW-15" edge="1">
          <mxGeometry width="50" height="50" relative="1" as="geometry">
            <mxPoint x="119" y="440" as="sourcePoint" />
            <mxPoint x="-7" y="490" as="targetPoint" />
          </mxGeometry>
        </mxCell>
        <mxCell id="KW4fXr90oI_FPSO1z6JW-13" value="" style="endArrow=classic;html=1;rounded=0;exitX=1;exitY=0.5;exitDx=0;exitDy=0;exitPerimeter=0;entryX=1;entryY=0.5;entryDx=0;entryDy=0;" parent="1" source="KW4fXr90oI_FPSO1z6JW-10" target="KW4fXr90oI_FPSO1z6JW-4" edge="1">
          <mxGeometry width="50" height="50" relative="1" as="geometry">
            <mxPoint x="119" y="440" as="sourcePoint" />
            <mxPoint x="269" y="150" as="targetPoint" />
            <Array as="points">
              <mxPoint x="263" y="630" />
              <mxPoint x="260" y="160" />
            </Array>
          </mxGeometry>
        </mxCell>
        <mxCell id="KW4fXr90oI_FPSO1z6JW-15" value="Position choose" style="rounded=1;whiteSpace=wrap;html=1;absoluteArcSize=1;arcSize=14;strokeWidth=2;" parent="1" vertex="1">
          <mxGeometry x="41" y="470" width="120" height="60" as="geometry" />
        </mxCell>
        <mxCell id="KW4fXr90oI_FPSO1z6JW-18" value="" style="endArrow=classic;html=1;rounded=0;exitX=0.5;exitY=1;exitDx=0;exitDy=0;entryX=0.5;entryY=0;entryDx=0;entryDy=0;entryPerimeter=0;" parent="1" source="KW4fXr90oI_FPSO1z6JW-15" target="KW4fXr90oI_FPSO1z6JW-10" edge="1">
          <mxGeometry width="50" height="50" relative="1" as="geometry">
            <mxPoint x="103" y="540" as="sourcePoint" />
            <mxPoint x="143" y="510" as="targetPoint" />
          </mxGeometry>
        </mxCell>
        <mxCell id="KW4fXr90oI_FPSO1z6JW-19" value="" style="endArrow=classic;html=1;rounded=0;exitX=0.5;exitY=1;exitDx=0;exitDy=0;exitPerimeter=0;entryX=0.5;entryY=0;entryDx=0;entryDy=0;" parent="1" source="KW4fXr90oI_FPSO1z6JW-10" target="KW4fXr90oI_FPSO1z6JW-20" edge="1">
          <mxGeometry width="50" height="50" relative="1" as="geometry">
            <mxPoint x="93" y="760" as="sourcePoint" />
            <mxPoint x="103" y="720" as="targetPoint" />
          </mxGeometry>
        </mxCell>
        <mxCell id="KW4fXr90oI_FPSO1z6JW-20" value="Game begin" style="rounded=1;whiteSpace=wrap;html=1;absoluteArcSize=1;arcSize=14;strokeWidth=2;" parent="1" vertex="1">
          <mxGeometry x="45" y="720" width="112" height="60" as="geometry" />
        </mxCell>
        <mxCell id="KW4fXr90oI_FPSO1z6JW-23" value="Game begin" style="rounded=1;whiteSpace=wrap;html=1;absoluteArcSize=1;arcSize=14;strokeWidth=2;" parent="1" vertex="1">
          <mxGeometry x="340" y="20" width="110" height="60" as="geometry" />
        </mxCell>
        <mxCell id="KW4fXr90oI_FPSO1z6JW-24" value="Could Kuppel?" style="strokeWidth=2;html=1;shape=mxgraph.flowchart.decision;whiteSpace=wrap;" parent="1" vertex="1">
          <mxGeometry x="345" y="115" width="100" height="90" as="geometry" />
        </mxCell>
        <mxCell id="KW4fXr90oI_FPSO1z6JW-25" value="" style="endArrow=classic;html=1;rounded=0;exitX=0.5;exitY=1;exitDx=0;exitDy=0;" parent="1" source="KW4fXr90oI_FPSO1z6JW-23" target="KW4fXr90oI_FPSO1z6JW-24" edge="1">
          <mxGeometry width="50" height="50" relative="1" as="geometry">
            <mxPoint x="240" y="150" as="sourcePoint" />
            <mxPoint x="290" y="100" as="targetPoint" />
          </mxGeometry>
        </mxCell>
        <mxCell id="KW4fXr90oI_FPSO1z6JW-26" style="edgeStyle=orthogonalEdgeStyle;rounded=0;orthogonalLoop=1;jettySize=auto;html=1;exitX=0.5;exitY=1;exitDx=0;exitDy=0;exitPerimeter=0;" parent="1" source="KW4fXr90oI_FPSO1z6JW-24" target="KW4fXr90oI_FPSO1z6JW-24" edge="1">
          <mxGeometry relative="1" as="geometry" />
        </mxCell>
        <mxCell id="KW4fXr90oI_FPSO1z6JW-27" value="" style="endArrow=classic;html=1;rounded=0;exitX=0.5;exitY=1;exitDx=0;exitDy=0;exitPerimeter=0;entryX=0.25;entryY=0;entryDx=0;entryDy=0;" parent="1" source="KW4fXr90oI_FPSO1z6JW-24" target="KW4fXr90oI_FPSO1z6JW-28" edge="1">
          <mxGeometry width="50" height="50" relative="1" as="geometry">
            <mxPoint x="340" y="340" as="sourcePoint" />
            <mxPoint x="395" y="250" as="targetPoint" />
          </mxGeometry>
        </mxCell>
        <mxCell id="KW4fXr90oI_FPSO1z6JW-28" value="Move&amp;nbsp; Position" style="rounded=1;whiteSpace=wrap;html=1;absoluteArcSize=1;arcSize=14;strokeWidth=2;" parent="1" vertex="1">
          <mxGeometry x="330" y="300" width="270" height="60" as="geometry" />
        </mxCell>
        <mxCell id="KW4fXr90oI_FPSO1z6JW-29" value="If Kuppel?" style="strokeWidth=2;html=1;shape=mxgraph.flowchart.decision;whiteSpace=wrap;" parent="1" vertex="1">
          <mxGeometry x="480" y="112.5" width="100" height="95" as="geometry" />
        </mxCell>
        <mxCell id="KW4fXr90oI_FPSO1z6JW-30" value="" style="endArrow=classic;html=1;rounded=0;exitX=1;exitY=0.5;exitDx=0;exitDy=0;exitPerimeter=0;entryX=0;entryY=0.5;entryDx=0;entryDy=0;entryPerimeter=0;" parent="1" source="KW4fXr90oI_FPSO1z6JW-24" target="KW4fXr90oI_FPSO1z6JW-29" edge="1">
          <mxGeometry width="50" height="50" relative="1" as="geometry">
            <mxPoint x="340" y="340" as="sourcePoint" />
            <mxPoint x="390" y="290" as="targetPoint" />
          </mxGeometry>
        </mxCell>
        <mxCell id="KW4fXr90oI_FPSO1z6JW-31" value="Kuppel" style="rounded=1;whiteSpace=wrap;html=1;absoluteArcSize=1;arcSize=14;strokeWidth=2;" parent="1" vertex="1">
          <mxGeometry x="610" y="220" width="110" height="60" as="geometry" />
        </mxCell>
        <mxCell id="KW4fXr90oI_FPSO1z6JW-32" value="" style="endArrow=classic;html=1;rounded=0;exitX=1;exitY=0.5;exitDx=0;exitDy=0;exitPerimeter=0;entryX=0.5;entryY=0;entryDx=0;entryDy=0;" parent="1" source="KW4fXr90oI_FPSO1z6JW-29" target="KW4fXr90oI_FPSO1z6JW-31" edge="1">
          <mxGeometry width="50" height="50" relative="1" as="geometry">
            <mxPoint x="340" y="270" as="sourcePoint" />
            <mxPoint x="390" y="220" as="targetPoint" />
            <Array as="points">
              <mxPoint x="665" y="160" />
            </Array>
          </mxGeometry>
        </mxCell>
        <mxCell id="KW4fXr90oI_FPSO1z6JW-33" value="" style="endArrow=classic;html=1;rounded=0;exitX=0.5;exitY=1;exitDx=0;exitDy=0;entryX=1;entryY=0.579;entryDx=0;entryDy=0;entryPerimeter=0;" parent="1" source="KW4fXr90oI_FPSO1z6JW-31" target="KW4fXr90oI_FPSO1z6JW-28" edge="1">
          <mxGeometry width="50" height="50" relative="1" as="geometry">
            <mxPoint x="540" y="340" as="sourcePoint" />
            <mxPoint x="560" y="350" as="targetPoint" />
            <Array as="points">
              <mxPoint x="665" y="335" />
            </Array>
          </mxGeometry>
        </mxCell>
        <mxCell id="KW4fXr90oI_FPSO1z6JW-34" value="WIN？" style="strokeWidth=2;html=1;shape=mxgraph.flowchart.decision;whiteSpace=wrap;" parent="1" vertex="1">
          <mxGeometry x="415" y="400" width="100" height="90" as="geometry" />
        </mxCell>
        <mxCell id="KW4fXr90oI_FPSO1z6JW-35" value="" style="endArrow=classic;html=1;rounded=0;exitX=0.5;exitY=1;exitDx=0;exitDy=0;entryX=0.5;entryY=0;entryDx=0;entryDy=0;entryPerimeter=0;" parent="1" source="KW4fXr90oI_FPSO1z6JW-28" target="KW4fXr90oI_FPSO1z6JW-34" edge="1">
          <mxGeometry width="50" height="50" relative="1" as="geometry">
            <mxPoint x="340" y="410" as="sourcePoint" />
            <mxPoint x="390" y="360" as="targetPoint" />
          </mxGeometry>
        </mxCell>
        <mxCell id="KW4fXr90oI_FPSO1z6JW-40" value="" style="endArrow=classic;html=1;rounded=0;exitX=0.5;exitY=1;exitDx=0;exitDy=0;exitPerimeter=0;entryX=0.75;entryY=0;entryDx=0;entryDy=0;" parent="1" source="KW4fXr90oI_FPSO1z6JW-29" target="KW4fXr90oI_FPSO1z6JW-28" edge="1">
          <mxGeometry width="50" height="50" relative="1" as="geometry">
            <mxPoint x="340" y="270" as="sourcePoint" />
            <mxPoint x="390" y="220" as="targetPoint" />
          </mxGeometry>
        </mxCell>
        <mxCell id="KW4fXr90oI_FPSO1z6JW-42" value="Build Position" style="rounded=1;whiteSpace=wrap;html=1;absoluteArcSize=1;arcSize=14;strokeWidth=2;" parent="1" vertex="1">
          <mxGeometry x="540" y="530" width="120" height="60" as="geometry" />
        </mxCell>
        <mxCell id="KW4fXr90oI_FPSO1z6JW-43" value="" style="endArrow=classic;html=1;rounded=0;exitX=1;exitY=0.5;exitDx=0;exitDy=0;exitPerimeter=0;entryX=0.5;entryY=0;entryDx=0;entryDy=0;" parent="1" source="KW4fXr90oI_FPSO1z6JW-34" target="KW4fXr90oI_FPSO1z6JW-42" edge="1">
          <mxGeometry width="50" height="50" relative="1" as="geometry">
            <mxPoint x="340" y="410" as="sourcePoint" />
            <mxPoint x="390" y="360" as="targetPoint" />
            <Array as="points">
              <mxPoint x="600" y="445" />
            </Array>
          </mxGeometry>
        </mxCell>
        <mxCell id="KW4fXr90oI_FPSO1z6JW-44" value="Round Switch" style="rounded=1;whiteSpace=wrap;html=1;absoluteArcSize=1;arcSize=14;strokeWidth=2;" parent="1" vertex="1">
          <mxGeometry x="540" y="640" width="120" height="60" as="geometry" />
        </mxCell>
        <mxCell id="KW4fXr90oI_FPSO1z6JW-46" value="" style="endArrow=classic;html=1;rounded=0;exitX=0.5;exitY=1;exitDx=0;exitDy=0;entryX=0.5;entryY=0;entryDx=0;entryDy=0;" parent="1" source="KW4fXr90oI_FPSO1z6JW-42" target="KW4fXr90oI_FPSO1z6JW-44" edge="1">
          <mxGeometry width="50" height="50" relative="1" as="geometry">
            <mxPoint x="340" y="540" as="sourcePoint" />
            <mxPoint x="390" y="490" as="targetPoint" />
          </mxGeometry>
        </mxCell>
        <mxCell id="KW4fXr90oI_FPSO1z6JW-47" value="End" style="strokeWidth=2;html=1;shape=mxgraph.flowchart.start_1;whiteSpace=wrap;" parent="1" vertex="1">
          <mxGeometry x="415" y="720" width="100" height="60" as="geometry" />
        </mxCell>
        <mxCell id="KW4fXr90oI_FPSO1z6JW-48" value="" style="endArrow=classic;html=1;rounded=0;exitX=0.5;exitY=1;exitDx=0;exitDy=0;exitPerimeter=0;entryX=0.5;entryY=0;entryDx=0;entryDy=0;entryPerimeter=0;" parent="1" source="KW4fXr90oI_FPSO1z6JW-34" target="KW4fXr90oI_FPSO1z6JW-47" edge="1">
          <mxGeometry width="50" height="50" relative="1" as="geometry">
            <mxPoint x="340" y="480" as="sourcePoint" />
            <mxPoint x="390" y="430" as="targetPoint" />
          </mxGeometry>
        </mxCell>
        <mxCell id="KW4fXr90oI_FPSO1z6JW-49" value="" style="endArrow=classic;html=1;rounded=0;exitX=0.5;exitY=1;exitDx=0;exitDy=0;entryX=1;entryY=0.5;entryDx=0;entryDy=0;" parent="1" source="KW4fXr90oI_FPSO1z6JW-44" target="KW4fXr90oI_FPSO1z6JW-23" edge="1">
          <mxGeometry width="50" height="50" relative="1" as="geometry">
            <mxPoint x="340" y="540" as="sourcePoint" />
            <mxPoint x="650" y="40" as="targetPoint" />
            <Array as="points">
              <mxPoint x="600" y="760" />
              <mxPoint x="780" y="760" />
              <mxPoint x="780" y="50" />
            </Array>
          </mxGeometry>
        </mxCell>
        <mxCell id="KW4fXr90oI_FPSO1z6JW-50" value="Yes" style="text;strokeColor=none;fillColor=none;align=left;verticalAlign=middle;spacingLeft=4;spacingRight=4;overflow=hidden;points=[[0,0.5],[1,0.5]];portConstraint=eastwest;rotatable=0;whiteSpace=wrap;html=1;" parent="1" vertex="1">
          <mxGeometry x="149" y="600" width="80" height="30" as="geometry" />
        </mxCell>
        <mxCell id="KW4fXr90oI_FPSO1z6JW-51" value="No" style="text;strokeColor=none;fillColor=none;align=left;verticalAlign=middle;spacingLeft=4;spacingRight=4;overflow=hidden;points=[[0,0.5],[1,0.5]];portConstraint=eastwest;rotatable=0;whiteSpace=wrap;html=1;" parent="1" vertex="1">
          <mxGeometry x="100" y="675" width="80" height="30" as="geometry" />
        </mxCell>
        <mxCell id="KW4fXr90oI_FPSO1z6JW-52" value="Yes" style="text;strokeColor=none;fillColor=none;align=left;verticalAlign=middle;spacingLeft=4;spacingRight=4;overflow=hidden;points=[[0,0.5],[1,0.5]];portConstraint=eastwest;rotatable=0;whiteSpace=wrap;html=1;" parent="1" vertex="1">
          <mxGeometry x="435" y="130" width="80" height="30" as="geometry" />
        </mxCell>
        <mxCell id="KW4fXr90oI_FPSO1z6JW-53" value="No" style="text;strokeColor=none;fillColor=none;align=left;verticalAlign=middle;spacingLeft=4;spacingRight=4;overflow=hidden;points=[[0,0.5],[1,0.5]];portConstraint=eastwest;rotatable=0;whiteSpace=wrap;html=1;" parent="1" vertex="1">
          <mxGeometry x="400" y="200" width="80" height="30" as="geometry" />
        </mxCell>
        <mxCell id="KW4fXr90oI_FPSO1z6JW-54" value="Yes" style="text;strokeColor=none;fillColor=none;align=left;verticalAlign=middle;spacingLeft=4;spacingRight=4;overflow=hidden;points=[[0,0.5],[1,0.5]];portConstraint=eastwest;rotatable=0;whiteSpace=wrap;html=1;" parent="1" vertex="1">
          <mxGeometry x="570" y="130" width="80" height="30" as="geometry" />
        </mxCell>
        <mxCell id="KW4fXr90oI_FPSO1z6JW-55" value="No" style="text;strokeColor=none;fillColor=none;align=left;verticalAlign=middle;spacingLeft=4;spacingRight=4;overflow=hidden;points=[[0,0.5],[1,0.5]];portConstraint=eastwest;rotatable=0;whiteSpace=wrap;html=1;" parent="1" vertex="1">
          <mxGeometry x="530" y="205" width="80" height="30" as="geometry" />
        </mxCell>
        <mxCell id="KW4fXr90oI_FPSO1z6JW-56" value="Yes" style="text;strokeColor=none;fillColor=none;align=left;verticalAlign=middle;spacingLeft=4;spacingRight=4;overflow=hidden;points=[[0,0.5],[1,0.5]];portConstraint=eastwest;rotatable=0;whiteSpace=wrap;html=1;" parent="1" vertex="1">
          <mxGeometry x="470" y="485" width="80" height="30" as="geometry" />
        </mxCell>
        <mxCell id="KW4fXr90oI_FPSO1z6JW-57" value="No" style="text;strokeColor=none;fillColor=none;align=left;verticalAlign=middle;spacingLeft=4;spacingRight=4;overflow=hidden;points=[[0,0.5],[1,0.5]];portConstraint=eastwest;rotatable=0;whiteSpace=wrap;html=1;" parent="1" vertex="1">
          <mxGeometry x="515" y="420" width="80" height="30" as="geometry" />
        </mxCell>
      </root>
    </mxGraphModel>
  </diagram>
</mxfile>
